<svg xmlns="http://www.w3.org/2000/svg" viewBox="0 0 512 512" role="img" aria-label="SplitApp">
  <rect width="512" height="512" rx="112" fill="#101820"/>
  <path d="M130 342c39 40 92 60 159 60 55 0 97-12 126-35 29-24 43-56 43-96 0-37-13-66-38-86-25-21-65-35-119-43l-39-6c-29-4-49-10-60-18-11-7-17-18-17-32 0-16 7-29 21-39 14-9 34-14 60-14 47 0 85 15 116 45l49-61C391-6 336-25 266-25c-54 0-96 12-126 35-31 23-46 55-46 95 0 36 12 64 37 84 24 20 61 33 112 41l39 6c32 5 54 12 66 20 12 9 18 21 18 37 0 17-7 31-22 41-15 10-37 15-67 15-51 0-94-18-130-54l-17 47z" fill="#f4d35e" opacity=".18"/>
  <path d="M128 337c36 36 84 54 145 54 51 0 90-11 117-32s41-50 41-86c0-33-12-59-35-78-22-18-58-31-107-38l-35-5c-26-4-44-9-54-16-10-6-15-16-15-29 0-15 6-26 19-35 13-8 31-12 55-12 42 0 77 14 105 41l45-55C372 12 321-5 258-5c-49 0-88 10-116 31-28 22-42 50-42 87 0 32 11 58 33 76 22 18 56 30 102 37l36 6c29 4 49 10 60 18 11 8 16 19 16 33 0 16-7 28-20 37-14 9-34 14-61 14-47 0-86-16-118-49l-20 52z" fill="#f6f7f2"/>
  <circle cx="384" cy="384" r="52" fill="#3fb8af"/>
  <circle cx="384" cy="384" r="22" fill="#101820"/>
</svg>
